<svg width="40" height="40" viewBox="0 0 40 40" fill="none" xmlns="http://www.w3.org/2000/svg">
<path d="M26.2109 40V21.5034H36.5382C36.8673 21.5034 37.1345 21.7484 37.1345 22.05V38.9067C37.1345 39.1967 37.0089 39.4747 36.7852 39.6798C36.5615 39.8848 36.2581 40 35.9418 40H26.2109ZM4.21818 40C3.90185 40 3.59848 39.8848 3.3748 39.6798C3.15112 39.4747 3.02545 39.1967 3.02545 38.9067V22.05C3.02545 21.7484 3.29273 21.5034 3.62182 21.5034H13.8418V40H4.21818ZM0.596364 19.8667C0.438198 19.8667 0.286511 19.8091 0.174671 19.7066C0.062831 19.6041 0 19.465 0 19.32L0 12.6017C0 12.3 0.267273 12.055 0.596364 12.055H12.4982C5.38182 10.3717 2.90909 6.96335 2.78 6.78169C2.6944 6.66142 2.63548 6.52687 2.60661 6.38573C2.57774 6.24459 2.57947 6.09962 2.61172 5.95909C2.67685 5.67528 2.8623 5.42682 3.12727 5.26835C3.39225 5.10989 3.71504 5.0544 4.02465 5.1141C4.33426 5.1738 4.60531 5.34379 4.77818 5.58669L4.78182 5.59002C4.83273 5.65835 7.22182 8.79002 14.1455 10.1567C11.8309 9.09002 9.56727 7.60835 8.96909 5.70169C8.76066 4.94599 8.78361 4.15224 9.03542 3.40772C9.28722 2.66321 9.75813 1.99677 10.3964 1.48169L10.4018 1.47835C10.7922 1.04181 11.2776 0.684717 11.827 0.42988C12.3764 0.175043 12.9778 0.0280704 13.5927 -0.00164795H13.6036C16.72 -0.00164795 18.8836 3.98335 20.1182 7.18002C21.48 4.06335 23.8218 0.0933521 26.9182 0.0933521C28.2655 0.158352 29.4418 0.776685 30.1891 1.70335L30.1982 1.71335C30.8163 2.25772 31.257 2.94904 31.4708 3.70994C31.6847 4.47085 31.6633 5.27129 31.4091 6.02169L31.4182 5.99169C30.7782 7.71669 28.7527 9.03002 26.5945 9.97669C32.9073 8.52335 35.0945 5.62669 35.1218 5.58835C35.2992 5.3554 35.5686 5.19489 35.8729 5.14084C36.1771 5.08679 36.4924 5.14343 36.7519 5.29876C37.0114 5.4541 37.1948 5.69594 37.2632 5.97304C37.3315 6.25015 37.2795 6.54078 37.1182 6.78335L37.1218 6.77835C36.9945 6.96169 34.5145 10.3684 27.4036 12.0517H39.1855C39.5145 12.0517 39.7818 12.2967 39.7818 12.5984V19.3134C39.7818 19.4583 39.719 19.5974 39.6071 19.6999C39.4953 19.8024 39.3436 19.86 39.1855 19.86L0.596364 19.8667ZM12.14 2.98002C10.9582 4.13002 11.1873 4.85835 11.2673 5.09669C11.8091 6.82169 15.3909 8.46002 18.4236 9.42335C16.84 4.49835 14.6909 2.18669 13.6055 2.18669C13.0288 2.27525 12.5082 2.556 12.1436 2.97502L12.14 2.98002ZM21.8036 9.29835C24.88 8.46335 28.5273 6.98335 29.1545 5.28835C29.2418 5.05169 29.5073 4.33502 28.3873 3.13669C28.2218 2.90996 28.007 2.71699 27.7564 2.56987C27.5058 2.42275 27.2248 2.32464 26.9309 2.28169L26.9182 2.28002C25.1982 2.28002 23.0945 5.99169 21.8036 9.29835Z" fill="black"/>
</svg>
